<?xml version="1.0" encoding="UTF-8"?>
<svg xmlns="http://www.w3.org/2000/svg" id="Layer_2" version="1.1" viewBox="0 0 292.3 379.6">
  <defs>
    <style>
      .st0 {
        font-family: FuturaPT-Demi, 'Futura PT';
        font-size: 34px;
        font-weight: 300;
      }

      .st0, .st1 {
        isolation: isolate;
      }
    </style>
  </defs>
  <path d="M102.9,207.1c15.3,1.4,25,8.5,34.5,15.1,10.5,7.4,19,6.9,28.3-1.8,8.9-8.3,19.1-14.6,31.9-15,1.2,4.5-1.6,6.2-3.4,8.2-28.4,31.9-30.7,68-17,106.6,2.3,6.5,5.6,12.7,8.1,19.2,1.2,3.2,4.9,6.8,1.6,10.1-2.9,3-7.6,1.4-10.4-.1-17.3-9-33.7-5.6-50.1,2.4-2.7,1.3-6.2,3.8-9.2,1.3-3.8-3.2-.6-7,.7-10.1,8.2-19.7,15.2-39.5,15.2-61.4,0-24.8-7.6-46.5-23.3-65.5-1.8-2.1-3.3-4.4-6.8-9h0Z"></path>
  <path d="M166.4,196.4c-.3,8.6-5.1,12.9-13.1,13.1-8.6.2-14.5-4.6-14.4-13.2.1-8.6,6.9-12.9,14.9-13.2,8.4-.3,12.1,5.4,12.7,13.3Z"></path>
  <path d="M114.2,158.1c-9.2-.5-16.5-3.9-20.8-12.4-1-1.9-1.1-4.2,1.3-5.1,8-3,15.9-2.1,23.4,1.7,4.3,2.2,9.4,5.5,8.3,10.8-1.3,6.1-7.7,4.2-12.2,4.9h0Z"></path>
  <path d="M190.1,158.4c-3.7-1.4-10.8,2-11.7-5.9-.7-6.2,11.6-13.3,22.2-13,4.1,0,9.8-1.2,10.7,4.9.9,5.9-11.2,13.8-21.3,13.9h0Z"></path>
  <path d="M43.3,91.2c-10.2-.9-16.7-5.6-17.9-15.6-.8-6.4,4.2-5.8,8.2-5.5,9.2.7,19.9,9.3,19.3,15.8-.6,6.8-6.2,4.8-9.6,5.3Z"></path>
  <path d="M93.6,93.1c.4,6.4-2.3,7.7-7.4,5.6-.7-.3-1.4-.8-2.1-1.1-8.3-4.2-16.3-18.8-13.9-24.9,1-2.5,2.5-2.6,4.7-2.2,8.5,1.6,18.7,14,18.8,22.6Z"></path>
  <path d="M39,184.3c-4.2-.7-10.1.4-11.1-5-.8-4.3,4.2-6.6,7.9-8.2,8.1-3.5,16.5-4,24.9-1.2,1.7.6,2.4,2.5,1.1,3.9-6,6.7-14,9.4-22.8,10.5h0Z"></path>
  <path d="M62.6,106c10.1-.3,17.1,2.9,21.1,11.2,1.1,2.3.1,4.1-1.9,4.9-8.3,3.4-16,1.5-22.7-4-3-2.5-7.3-5.3-5.2-9.9,1.8-3.8,6.5-2,8.7-2.3h0Z"></path>
  <path d="M52,133.1c7.7.7,17.1,1.7,17.9,10.4.6,6.8-8.8,5.6-13.8,5.8-7,.3-16.5-.2-17.4-8.9-.8-7.1,7.8-6.2,13.3-7.2h0Z"></path>
  <path d="M236.1,108.7c4.5.8,11.3,0,10.1,6-1.8,9.2-10.6,11.5-18.7,12.7-4.5.7-10.4-.9-9.6-6.4,1.6-9.7,10.1-11.3,18.1-12.2Z"></path>
  <path d="M207.6,173.1c.8.2,3.3,0,4.4,1.2,1.9,2,.4,4.5-.9,6.6-.4.7-.9,1.4-1.4,2-6.1,7.7-13.9,12.2-24,11.8-2.7-.1-2.9-2.1-2.5-4.4,1.4-7.5,14.1-16.9,24.4-17.3h0Z"></path>
  <path d="M279.8,80.9c-5.5,12-12.9,19-25.6,18.5-2.3,0-5.2.7-6.4-2.1-1.1-2.6.6-4.7,2.4-6.4,7.9-7.5,16.4-13.3,29.6-9.9h0Z"></path>
  <path d="M77.2,37.8c-.3-5.5,1.4-7.8,7.2-5.1,6.7,3.1,11.5,7.8,13.3,15.1,1,4,4.9,9.2-.4,11.9-4.3,2.2-8.7-1.5-11.8-4.7-4.5-4.8-8.6-9.9-8.3-17.1h0Z"></path>
  <path d="M163.2,25c-1.1,8-3.2,16.5-10.9,16.6-7.2,0-7.2-9.4-7.4-14.9-.3-6.1,3.3-12.8,10.6-12.9,7.2-.1,6.5,7,7.8,11.2h0Z"></path>
  <path d="M109.1,195c-10.8-1.3-18.7-5.9-23.6-14.8-2.8-5.1-1.3-8.1,4.8-6.9,9,1.8,17.1,5.6,22.3,13.7,1.4,2.1,2.9,4.6,1.3,6.7-.9,1.2-3.7,1-4.9,1.3h0Z"></path>
  <path d="M171,55.8c.5-7.1,3.2-13.7,10.3-14.9,7.3-1.2,7.8,6.4,7.9,11.2.1,7.1-2.4,15-10.4,15.7-6,.5-6.8-6.9-7.9-12h0Z"></path>
  <path d="M161.6,152c-.5,4.4.5,10.8-5.6,10.3-9.2-.8-12.1-8.5-12.4-16.7-.2-4.9.4-11.3,7-10.2,8.7,1.3,10.2,9.2,11,16.6h0Z"></path>
  <path d="M251.9,166.4c4.3.9,9.8-.6,10.6,4.5.7,3.9-3.8,5.6-7.1,7.2-7.6,3.6-15.3,5.7-23.2,1.3-2-1.1-2.4-3.3-.9-5.2,5.5-6.7,13.5-6.5,20.5-7.8h0Z"></path>
  <path d="M203.2,61.1c1.2-9,12.1-21.7,17.4-20.2,3.6,1,3.3,4,3,7-1,8.8-11.1,21.4-16.9,20.6-4.8-.7-3.5-4.5-3.5-7.4h0Z"></path>
  <path d="M158.5,91.6c-.7,7.1-3,13.8-10.7,14.5-7.4.6-6-6.3-6.1-10.9-.1-7.8,3.3-14.8,11.1-15.2,6.1-.3,4.7,7.2,5.7,11.6Z"></path>
  <path d="M15.4,145.9c4.3,1.2,13.3-.5,12.7,6.2-.7,7.7-9.6,8.4-16.6,8.2-4.8-.1-12.1-.8-11.7-5.8.5-7.5,7.9-9.1,15.7-8.7Z"></path>
  <path d="M187.1,83.7c2.4.2,5.9-.1,5.6,4.8-.3,6.3-10.9,15.3-18.2,15.5-4.2.1-7.2-.9-6.8-6,.5-7.1,10.1-14.6,19.4-14.4h0Z"></path>
  <path d="M18.1,107.4c7.4,1.3,15.2,2.9,16.3,10.8.8,5.5-5.8,5.7-10.2,5.7-7.8,0-15.9-2-17.1-10.4-.9-6.3,7.4-4,11.1-6.2Z"></path>
  <path d="M135.4,58.8c-2,4,.2,12-6.9,10.8-6.6-1.1-10.5-7.5-10.7-14.5-.2-4.8,1.4-11.6,6.9-10.7,6.5,1,9.8,7.6,10.6,14.4h0Z"></path>
  <path d="M58.8,214.1c-3.5-1.2-10.8.6-9-4.6,2.9-8.5,12-9.8,20.3-9.9,3.7,0,10.4-.8,8.9,4.7-2.7,9.6-12.6,8.2-20.2,9.9Z"></path>
  <path d="M195.6,111.9c3.6.1,8-1.1,7.2,4.2-1.2,8.8-7.2,12.2-15.6,12.3-3.7,0-8.6-.2-7.8-5.2,1.5-8.9,8.9-10.6,16.1-11.3Z"></path>
  <path d="M246.2,151.2c-4.8-1.2-13.6,0-13.6-7.4,0-7.3,8.8-6.9,14.6-7.6,4.8-.5,10.4-.9,10.6,6.4.1,7.3-5.1,8.2-11.6,8.6Z"></path>
  <path d="M233.2,79c-2,9-5.9,15.1-15.5,15.3-4.1.1-6.2-1.5-5.4-5.9,1.6-8.6,7.9-11.9,15.6-13.2,3.4-.6,5.7.3,5.2,3.8h0Z"></path>
  <path d="M107.8,110.7c8.9.3,14.5,4.4,16.7,12.3,1,3.7-1.9,4.7-5.2,4.8-7.8.3-19.1-7.5-18.6-13,.5-5,4.9-3,7-4.2h0Z"></path>
  <path d="M239,195c4.1.8,10.6-.5,10.9,4.7.3,5.3-6.3,5.2-10.6,5.9-6,1-12.1,2.3-17.7-1.5-.6-.4-1.1-2.6-.7-3,5-4.8,11.4-5.7,18.1-6.1h0Z"></path>
  <path d="M125.8,93.7c-.1,3.6-1.9,5.9-5.4,4.9-7.1-1.9-12.6-5.9-13.5-13.9-.4-3.7,2.1-5.3,5.4-4.7,7.5,1.5,12.3,5.9,13.5,13.6h0Z"></path>
  <path d="M275.6,114.4c3.5,1.1,9.8-.1,8.7,5.5-1.1,5.3-6.9,7.6-12.5,8-3.8.3-8.3-.8-8-5.4.5-6.6,6.1-7.7,11.7-8.1h0Z"></path>
  <path d="M282.4,164.8c-5.6-.9-11.4-1.5-11.9-7.3-.4-4.5,4.8-4.7,8.2-4.9,5.1-.3,10.9,1.4,11.8,6.3,1,5.6-5.7,3.8-8.1,5.9h0Z"></path>
  <g class="st1">
    <text class="st0" transform="translate(33.2 289.6)">
      <tspan x="0" y="0" xml:space="preserve">Hendy       </tspan>
    </text>
    <text class="st0" transform="translate(177.9 289.6)">
      <tspan x="0" y="0">F</tspan>
    </text>
    <text class="st0" transform="translate(192.3 289.6)">
      <tspan x="0" y="0">arms</tspan>
    </text>
  </g>
</svg>
